<?xml version="1.0" encoding="utf-8"?>

<svg version="1.1" id="圖層_1" xmlns="http://www.w3.org/2000/svg" xmlns:xlink="http://www.w3.org/1999/xlink" x="0px" y="0px"
	 viewBox="0 0 24 24" style="enable-background:new 0 0 24 24;" xml:space="preserve">
<style type="text/css">
	.st0{fill:#FFFFFF;}
</style>
<path class="st0" d="M21,17c0-0.1,0-0.2,0-0.3l-2-6C18.8,10.3,18.4,10,18,10h-0.6l0.7-0.7c1.2-1.2,1.2-3.1,0-4.2
	C17.3,4.3,16.1,4,15,4.4V3c0-1.7-1.3-3-3-3S9,1.3,9,3v1.4C7.9,4,6.7,4.3,5.9,5.1c-1.2,1.2-1.2,3.1,0,4.2L6.6,10H6
	c-0.4,0-0.8,0.3-0.9,0.7l-2,6c0,0.1,0,0.2,0,0.3c0,0,0,5,0,5c0,0.6,0.4,1,1,1h16c0.6,0,1-0.4,1-1C21,22,21,17,21,17z M7.3,6.5
	C7.5,6.3,7.7,6.2,8,6.2s0.5,0.1,0.7,0.3L11,8.8V3c0-0.6,0.4-1,1-1s1,0.4,1,1v5.8l2.3-2.3c0.4-0.4,1-0.4,1.4,0c0.4,0.4,0.4,1,0,1.4
	L12,12.6L7.3,7.9C6.9,7.5,6.9,6.9,7.3,6.5z M6.7,12h1.9l3.4,3.4l3.4-3.4h1.9l1.7,5H5.1C5.1,17,6.7,12,6.7,12z M19,21H5v-3h14V21z"/>
</svg>
